Coordinates
version=1
nRows=38
nColumns=12
inDegrees=yes

Units are S.I. units (second, meters, Newtons, ...)
Angles are in degrees

endheader
time	SC_y	SC_z	SC_x	AC_y	AC_z	AC_x	GH_y	GH_z	GH_yy	EL_x	PS_y
       0.0              -26.84         -4.443          64.48          55.73         -18.66          7.735          61.49          23.15         -128.9          97.76          87.56
  0.002076              -26.84         -4.443          64.48          55.73         -18.66          7.733          61.46          23.15         -128.9          97.75          87.55
  0.004152              -26.84         -4.442          64.48          55.73         -18.66          7.731          61.42          23.15         -128.9          97.75          87.55
  0.006229              -26.84         -4.442          64.49          55.73         -18.66          7.728          61.38          23.14         -128.9          97.75          87.54
  0.008305              -26.84         -4.441          64.49          55.72         -18.66          7.726          61.34          23.14         -128.9          97.74          87.54
   0.01038              -26.84         -4.441          64.49          55.72         -18.65          7.723           61.3          23.14         -128.9          97.74          87.53
   0.01246              -26.84          -4.44           64.5          55.72         -18.65          7.721          61.25          23.13         -128.9          97.73          87.52
   0.01453              -26.84          -4.44           64.5          55.71         -18.65          7.718           61.2          23.13         -128.9          97.73          87.52
   0.01661              -26.84         -4.439          64.51          55.71         -18.64          7.714          61.14          23.13         -128.9          97.72          87.51
   0.01869              -26.84         -4.438          64.51          55.71         -18.64          7.711          61.08          23.12         -128.9          97.72           87.5
   0.02076              -26.84         -4.438          64.52           55.7         -18.64          7.707          61.02          23.12         -129.0          97.71          87.49
   0.02284              -26.84         -4.437          64.52           55.7         -18.63          7.703          60.95          23.11         -129.0           97.7          87.48
   0.02491              -26.84         -4.436          64.53          55.69         -18.63          7.699          60.88          23.11         -129.0          97.69          87.47
   0.02699              -26.84         -4.435          64.53          55.69         -18.62          7.694           60.8           23.1         -129.0          97.69          87.46
   0.02907              -26.84         -4.434          64.54          55.68         -18.62          7.689          60.72           23.1         -129.0          97.68          87.44
   0.03114              -26.84         -4.433          64.55          55.67         -18.61          7.684          60.63          23.09         -129.0          97.67          87.43
   0.03322              -26.84         -4.432          64.56          55.67         -18.61          7.678          60.53          23.08         -129.0          97.66          87.41
    0.0353              -26.83         -4.431          64.56          55.66          -18.6          7.672          60.42          23.08         -129.0          97.65           87.4
   0.03737              -26.83         -4.429          64.57          55.65         -18.59          7.665           60.3          23.07         -129.0          97.63          87.38
   0.03945              -26.83         -4.428          64.58          55.64         -18.59          7.657          60.17          23.06         -129.0          97.62          87.36
   0.04152              -26.83         -4.426           64.6          55.63         -18.58          7.648          60.02          23.05         -129.1          97.61          87.34
    0.0436              -26.83         -4.424          64.61          55.62         -18.57          7.639          59.87          23.04         -129.1          97.59          87.31
   0.04568              -26.83         -4.422          64.62          55.61         -18.56          7.629          59.69          23.02         -129.1          97.57          87.29
   0.04775              -26.83          -4.42          64.64           55.6         -18.55          7.618           59.5          23.01         -129.1          97.55          87.26
   0.04983              -26.83         -4.418          64.66          55.58         -18.54          7.605          59.29           23.0         -129.1          97.53          87.23
   0.05191              -26.83         -4.415          64.67          55.57         -18.52          7.591          59.05          22.98         -129.2          97.51          87.19
   0.05398              -26.82         -4.412           64.7          55.55         -18.51          7.575          58.78          22.96         -129.2          97.48          87.15
   0.05606              -26.82         -4.408          64.72          55.53         -18.49          7.557          58.48          22.94         -129.2          97.45           87.1
   0.05813              -26.82         -4.404          64.75          55.51         -18.47          7.537          58.14          22.91         -129.2          97.41          87.05
   0.06021              -26.82           -4.4          64.78          55.48         -18.45          7.514          57.75          22.89         -129.3          97.37          86.99
   0.06229              -26.81         -4.395          64.81          55.45         -18.42          7.488          57.31          22.85         -129.3          97.33          86.93
   0.06436              -26.81         -4.389          64.85          55.41         -18.39          7.458           56.8          22.82         -129.4          97.28          86.85
   0.06644              -26.81         -4.382           64.9          55.38         -18.36          7.424          56.22          22.78         -129.4          97.22          86.76
   0.06852               -26.8         -4.374          64.96          55.33         -18.32          7.384          55.54          22.73         -129.5          97.15          86.66
   0.07059               -26.8         -4.365          65.02          55.28         -18.27          7.337          54.74          22.67         -129.6          97.06          86.54
   0.07267              -26.79         -4.354          65.09          55.21         -18.21          7.282          53.81          22.61         -129.7          96.97          86.39
   0.07474              -26.79         -4.341          65.18          55.14         -18.15          7.216          52.69          22.53         -129.8          96.85          86.23
   0.07682              -26.78         -4.325          65.29          55.05         -18.07          7.137          51.36          22.43         -129.9          96.72          86.02
